{"title":"Takers.2010.R5.XviD-LEGi0N","uid":6001667,"size":734385937,"categoryP":"video","categoryS":"movies","magnet":"?xt=urn:btih:462da8ab42b8e92a8f84bf6a834f486b1c98d4b5&amp;dn=Takers.2010.R5.XviD-LEGi0N&amp;tr=udp%3A%2F%2Ftracker.openbittorrent.com%3A80&amp;tr=udp%3A%2F%2Fopen.demonii.com%3A1337&amp;tr=udp%3A%2F%2Ftracker.coppersurfer.tk%3A6969&amp;tr=udp%3A%2F%2Fexodus.desync.com%3A6969","seeders":0,"leechers":1,"uploader":"rlf-rls","files":-1,"time":1291198548,"description":"  ,--,                                                             \n,---.'|                                     ,----..            ,--. \n|   | :       ,---,.  ,----..      ,---,   /   /   \\         ,--.'| \n:   : |     ,'  .' | /   /   \\  ,`--.' |  /   .     :    ,--,:  : | \n|   ' :   ,---.'   ||   :     : |   :  : .   /   ;.  \\,`--.'`|  ' : \n;   ; '   |   |   .'.   |  ;. / :   |  '.   ;   /  ` ;|   :  :  | | \n'   | |__ :   :  |-,.   ; /--`  |   :  |;   |  ; \\ ; |:   |   \\ | : \n|   | :.'|:   |  ;/|;   | ;  __ '   '  ;|   :  | ; | '|   : '  '; | \n'   :    ;|   :   .'|   : |.' .'|   |  |.   |  ' ' ' :'   ' ;.    ; \n|   |  ./ |   |  |-,.   | '_.' :'   :  ;'   ;  \\; /  ||   | | \\   | \n;   : ;   '   :  ;/|'   ; : \\  ||   |  ' \\   \\  ',  / '   : |  ; .' \n|   ,/    |   |    \\'   | '/  .''   :  |  ;   :    /  |   | '`--'   \n'---'     |   :   .'|   :    /  ;   |.'    \\   \\ .'   '   : |       \n          |   | ,'   \\   \\ .'   '---'       `---`     ;   |.'       \n          `----'      `---`                           '---'                \n\nLEGi0N PRESENTS\n\nTakers 2010 R5 XviD-LEGi0N 31|11|2010\n\nFormat: AVI\nFile size: 700 MiB\nDuration: 1h 42mn\nOverall bit rate: 950 Kbps\nIMDb Rating: 5.1/10\nGenre: Action | Crime | Thriller\nRelease: 27 August 2010\nSubs: N/A\nLanguage: English\nIMDb Link: http://www.imdb.com/title/tt1135084/\nTrailer: http://www.imdb.com/video/imdb/vi3048801817/\nSource: DVD5 ELEKTRI4KA\nSample: Yes Notes\nadjusted colors a little\nadded a little sharpness\nStudio audio from PPV Video\n\nFourCC: XviD\nMatrix: MPEG\nBVOP: Yes\nQPel: No\nGMC: No\nBit rate: 814 Kbps\nResolution: 720x304\nDAR: 2.35:1\nFPS: 25.000 fps\nBit depth: 8 bits\nQF: 0.149\nStream size: 598 MiB Audio\nFormat: mp3-CBR\nBit rate: 128 Kbps\nChannels: 2 channels\nSampling rate: 48.0 KHz\nBit rate mode: Constant\nStream size: 94.1 MiB \n\nPilot:\n\nA group of bank robbers find their multi-million\ndollar plan interrupted by a hard-boiled detective\n\nCast:\n\nChris Brown...Jesse Attica\nHayden Christensen...A.J\nMatt Dillon...Jack Welles\nMichael Ealy...Jake Attica\nIdris Elba...Gordon Cozier\nSteve Harris...Lt. Carver\n\nGREETZ:\n\nELEKTRI4KA | Joshua08 | HiVE-CM8 | BMB | LUSi\nHiTM4N | DiLLoN | Killerhz | iNK | Noir\nLungbuster | bigimac | YeFsTe | skillz | THC\nCLASSiFiED | FLAWL3SS | IMAGiNE | CRYS |\n\n\nScreens:\n &lt;a href=&quot;\nhttp://www.leetleech.org/images/19223702531210747310.png&quot; rel=&quot;nofollow&quot; target=&quot;_NEW&quot;&gt;\nhttp://www.leetleech.org/images/19223702531210747310.png&lt;/a&gt;\n &lt;a href=&quot;\nhttp://www.leetleech.org/images/39926328726824574485.png&quot; rel=&quot;nofollow&quot; target=&quot;_NEW&quot;&gt;\nhttp://www.leetleech.org/images/39926328726824574485.png&lt;/a&gt;\n &lt;a href=&quot;\nhttp://www.leetleech.org/images/22941793638637437385.png&quot; rel=&quot;nofollow&quot; target=&quot;_NEW&quot;&gt;\nhttp://www.leetleech.org/images/22941793638637437385.png&lt;/a&gt;\n &lt;a href=&quot;\nhttp://www.leetleech.org/images/92921803055233702740.png&quot; rel=&quot;nofollow&quot; target=&quot;_NEW&quot;&gt;\nhttp://www.leetleech.org/images/92921803055233702740.png&lt;/a&gt;\n\n\nEnjoy !!!\n","torrent":{"xt":"urn:btih:462da8ab42b8e92a8f84bf6a834f486b1c98d4b5","amp;dn":"Takers.2010.R5.XviD-LEGi0N","amp;tr":["udp%3A%2F%2Ftracker.openbittorrent.com%3A80","udp%3A%2F%2Fopen.demonii.com%3A1337","udp%3A%2F%2Ftracker.coppersurfer.tk%3A6969","udp%3A%2F%2Fexodus.desync.com%3A6969"],"infoHash":"462da8ab42b8e92a8f84bf6a834f486b1c98d4b5","infoHashBuffer":{"type":"Buffer","data":[70,45,168,171,66,184,233,42,143,132,191,106,131,79,72,107,28,152,212,181]},"announce":[],"urlList":[]}}